/vscmnt/brussel_pixiu_data/_data_brussel/112/vsc11236/PredSimResults/SUBJ09opt3D/weighted-trackIG/worker_05.mot
version=1
nRows=10
nColumns=50
inDegrees=yes
endheader
                time	         pelvis_tilt	         pelvis_list	     pelvis_rotation	           pelvis_tx	           pelvis_ty	           pelvis_tz	       hip_flexion_r	     hip_adduction_r	      hip_rotation_r	        knee_angle_r	       ankle_angle_r	         mtp_angle_r	       hip_flexion_l	     hip_adduction_l	      hip_rotation_l	        knee_angle_l	       ankle_angle_l	         mtp_angle_l	    lumbar_extension	      lumbar_bending	     lumbar_rotation	 ercspn_r/activation	 intobl_r/activation	 extobl_r/activation	    abd_r/activation	    add_r/activation	hamstrings_r/activation	bifemsh_r/activation	glut_max_r/activation	iliopsoas_r/activation	rect_fem_r/activation	  vasti_r/activation	gastroc_r/activation	 soleus_r/activation	tib_ant_r/activation	 ercspn_l/activation	 intobl_l/activation	 extobl_l/activation	    abd_l/activation	    add_l/activation	hamstrings_l/activation	bifemsh_l/activation	glut_max_l/activation	iliopsoas_l/activation	rect_fem_l/activation	  vasti_l/activation	gastroc_l/activation	 soleus_l/activation	tib_ant_l/activation	
          2.00659498	         -3.63482074	          1.58790950	         -7.48778061	          2.20725448	          0.99447144	          0.00052277	        -11.51483099	         -3.10670985	         -3.81272806	        -13.08737303	          5.05176587	         37.21815425	         23.02765772	          0.35188903	         -4.55940164	          2.39062599	          2.23788378	          0.25521299	        -12.13159571	          1.06997476	         10.96721987	          0.00999999	          0.00999999	          0.00999999	          0.05194762	          0.00999999	          0.02271940	          0.28252229	          0.01829073	          0.00999999	          0.00999999	          0.00999999	          0.30768215	          0.25938671	          0.01069094	          0.03685693	          0.19804329	          0.04884216	          0.00999999	          0.27765106	          0.05577941	          0.01000000	          0.01958010	          0.08300593	          0.02039624	          0.06855850	          0.00999999	          0.00999999	          0.32739017	
          2.01997228	         -3.69194073	          1.78372674	         -7.44763677	          2.22736635	          0.99240843	         -0.00052788	        -11.97856918	         -3.53672982	         -4.40670432	        -14.14659616	          3.97998246	         38.96959744	         22.59706195	          0.73699306	         -4.78170069	          1.35886895	          1.56216833	          0.21800535	        -11.48102831	          0.48876644	         11.12620306	          0.01088659	          0.00999999	          0.00999999	          0.04247713	          0.00999999	          0.03838877	          0.27036586	          0.01495617	          0.02408576	          0.00999999	          0.00999999	          0.28066142	          0.23638893	          0.00999999	          0.03013760	          0.16234591	          0.03993782	          0.04392214	          0.22703294	          0.06901578	          0.00999999	          0.03792918	          0.06787325	          0.01667783	          0.05605971	          0.01222954	          0.01222954	          0.37310224	
          2.03334958	         -3.72773027	          2.03555885	         -7.37102751	          2.24771444	          0.99067268	         -0.00162063	        -12.25477540	         -4.04536332	         -5.03073184	        -15.57423319	          2.73048823	         40.68882974	         22.01247562	          1.17302514	         -5.07669656	          0.56687369	          0.69294721	          0.20801770	        -10.81939404	         -0.16786887	         11.22007947	          0.01000000	          0.00999999	          0.00999999	          0.03473319	          0.00999999	          0.05298024	          0.22613839	          0.01222954	          0.04428804	          0.00999999	          0.00999999	          0.23352993	          0.20035382	          0.00999999	          0.02464326	          0.13274889	          0.03265682	          0.10080620	          0.18564292	          0.07162402	          0.01222954	          0.05573730	          0.05549938	          0.01363732	          0.04583955	          0.00999999	          0.00999999	          0.43680210	
          2.04672688	         -3.74682609	          2.32023106	         -7.26075349	          2.26793000	          0.98951687	         -0.00278316	        -12.25888287	         -4.61592559	         -5.67806916	        -17.46290023	          1.27969201	         42.22912722	         21.34559966	          1.65094765	         -5.44361133	         -0.08699280	         -0.14960271	          0.16782890	        -10.19005549	         -0.86900369	         11.25278532	          0.03655627	          0.00999999	          0.00999999	          0.02840104	          0.00999999	          0.06972570	          0.18491146	          0.00999999	          0.03621397	          0.00999999	          0.00999999	          0.19095545	          0.16382763	          0.00999999	          0.02015059	          0.10854765	          0.02670321	          0.15663406	          0.15179866	          0.07301853	          0.01000001	          0.06259710	          0.04538138	          0.01115112	          0.03813478	          0.00999999	          0.00999999	          0.47372220	
          2.06010418	         -3.75341453	          2.62261905	         -7.12492251	          2.28767805	          0.98915687	         -0.00400590	        -11.92855046	         -5.24130884	         -6.34377352	        -19.86930251	         -0.34543361	         43.31814673	         20.66966471	          2.15105253	         -5.81614324	         -0.77183716	         -0.59623133	          0.12879703	         -9.62820870	         -1.59572391	         11.23100218	          0.07350196	          0.00999999	          0.00999999	          0.02322329	          0.05532271	          0.08178379	          0.15120055	          0.00999999	          0.04789205	          0.00999999	          0.00999999	          0.15614267	          0.13396047	          0.00999999	          0.01647697	          0.08875850	          0.02183499	          0.19928644	          0.12412451	          0.07236637	          0.01000000	          0.09766896	          0.03710797	          0.00999999	          0.05627648	          0.00999999	          0.00999999	          0.47737513	
          2.07348148	         -3.75203662	          2.91672305	         -6.96743950	          2.30669147	          0.98978360	         -0.00525568	        -11.22088169	         -5.90262677	         -7.05670218	        -22.83368285	         -2.01523421	         43.46611493	         19.99314381	          2.64626457	         -6.13240236	         -1.46555714	         -0.65661314	          0.09738657	         -9.16068907	         -2.31826907	         11.15803597	          0.06719375	          0.00999999	          0.00999999	          0.01898949	          0.10817548	          0.08408339	          0.12363542	          0.00999999	          0.07198233	          0.00999999	          0.00999999	          0.12767654	          0.10953835	          0.00999999	          0.01623910	          0.07257707	          0.01785428	          0.20781168	          0.13354067	          0.07556299	          0.01000000	          0.11381154	          0.03034287	          0.00999999	          0.07683839	          0.00999999	          0.01000000	          0.44884953	
          2.08685878	         -3.74455522	          3.15439642	         -6.78541642	          2.32488870	          0.99138858	         -0.00649171	        -10.14193286	         -6.56370456	         -7.82269386	        -26.33363786	         -3.71304224	         42.47386327	         19.30067515	          3.08566972	         -6.38768178	         -2.12413627	         -0.41532706	          0.08122515	         -8.79843883	         -2.98368364	         11.03224119	          0.05494377	          0.00999999	          0.00999999	          0.01552754	          0.13495009	          0.08447354	          0.10109564	          0.00999999	          0.06383945	          0.00999999	          0.00999999	          0.10440003	          0.08956859	          0.00999999	          0.01764759	          0.05934566	          0.01459930	          0.19748839	          0.13777860	          0.07863475	          0.01000000	          0.11679264	          0.02481111	          0.00999999	          0.07431786	          0.00999999	          0.00999999	          0.40462010	
          2.10023608	         -3.72965348	          3.29552469	         -6.57554880	          2.34234821	          0.99376745	         -0.00767954	         -8.76161019	         -7.19040093	         -8.62036215	        -30.19725562	         -5.60962268	         40.55958370	         18.56940859	          3.42692898	         -6.59205423	         -2.70077356	         -0.01386493	          0.08113969	         -8.53465503	         -3.54785678	         10.85035907	          0.04492706	          0.00999999	          0.00999999	          0.01269674	          0.15897974	          0.08537465	          0.09363438	          0.00999999	          0.05220098	          0.00999999	          0.00999999	          0.08536703	          0.07323948	          0.01276962	          0.01443029	          0.04852645	          0.01193772	          0.17829047	          0.12996298	          0.08132151	          0.01000000	          0.12039237	          0.02028784	          0.00999999	          0.08178816	          0.00999999	          0.01000000	          0.35808258	
          2.11361338	         -3.70441085	          3.31609952	         -6.33470521	          2.35919041	          0.99665399	         -0.00879349	         -7.16283946	         -7.75311936	         -9.39092420	        -34.27210788	         -7.60438267	         37.63679616	         17.77402073	          3.64629402	         -6.73344574	         -3.15185844	          0.42878431	          0.09923010	         -8.35718898	         -3.98406989	         10.60870577	          0.03673648	          0.01627555	          0.02075350	          0.01038202	          0.17483034	          0.07459576	          0.07656404	          0.00999999	          0.04268430	          0.00999999	          0.00999999	          0.06980390	          0.05988730	          0.05805544	          0.01179952	          0.03967967	          0.01000000	          0.15978225	          0.10626965	          0.08420102	          0.01000000	          0.12070680	          0.01658919	          0.00999999	          0.06687750	          0.00999999	          0.00999999	          0.31933980	
          2.12699068	         -3.66659528	          3.21651442	         -6.06379565	          2.37548470	          0.99977128	         -0.00980735	         -5.41931952	         -8.22008467	        -10.01731029	        -38.46829517	         -9.27111823	         33.40134447	         16.91532372	          3.74138222	         -6.79988724	         -3.47474318	          0.82641357	          0.14048057	         -8.25764328	         -4.29164721	         10.30569927	          0.07605039	          0.04914372	          0.08680833	          0.00999999	          0.14295730	          0.06099632	          0.06260578	          0.00999999	          0.03490260	          0.00999999	          0.00999999	          0.05707806	          0.04896934	          0.16529806	          0.00999999	          0.03244573	          0.00999999	          0.13327375	          0.08689580	          0.08121086	          0.01000000	          0.09870094	          0.01356484	          0.00999999	          0.06347196	          0.00999999	          0.00999999	          0.28958668	
